<svg width="1024" height="1024" viewBox="0 0 1024 1024" fill="none" xmlns="http://www.w3.org/2000/svg">
  <defs>
    <linearGradient id="tileA" x1="186" y1="205" x2="838" y2="818" gradientUnits="userSpaceOnUse">
      <stop stop-color="#2BEEF0"/>
      <stop offset="0.48" stop-color="#1EA3FF"/>
      <stop offset="1" stop-color="#1D5DFF"/>
    </linearGradient>
    <radialGradient id="bgGlow" cx="0" cy="0" r="1" gradientUnits="userSpaceOnUse" gradientTransform="translate(512 512) rotate(90) scale(620)">
      <stop stop-color="#172132"/>
      <stop offset="0.72" stop-color="#101724"/>
      <stop offset="1" stop-color="#080D16"/>
    </radialGradient>
    <filter id="softShadow" x="130" y="170" width="760" height="700" filterUnits="userSpaceOnUse" color-interpolation-filters="sRGB">
      <feDropShadow dx="0" dy="22" stdDeviation="26" flood-color="#000000" flood-opacity="0.35"/>
      <feDropShadow dx="0" dy="0" stdDeviation="18" flood-color="#00DDF5" flood-opacity="0.18"/>
    </filter>
  </defs>
  <rect width="1024" height="1024" rx="244" fill="url(#bgGlow)"/>
  <g opacity="0.23">
    <path d="M222 224H802" stroke="#273449" stroke-width="2"/>
    <path d="M222 802H802" stroke="#273449" stroke-width="2"/>
    <path d="M224 222V802" stroke="#273449" stroke-width="2"/>
    <path d="M800 222V802" stroke="#273449" stroke-width="2"/>
  </g>
  <g filter="url(#softShadow)">
    <rect x="224" y="248" width="104" height="104" rx="22" fill="url(#tileA)"/>
    <rect x="342" y="248" width="104" height="104" rx="22" fill="url(#tileA)"/>
    <rect x="460" y="248" width="104" height="104" rx="22" fill="url(#tileA)"/>
    <rect x="578" y="248" width="104" height="104" rx="22" fill="url(#tileA)"/>
    <rect x="696" y="248" width="104" height="104" rx="22" fill="url(#tileA)"/>
    <rect x="342" y="366" width="104" height="104" rx="22" fill="url(#tileA)"/>
    <rect x="578" y="366" width="104" height="104" rx="22" fill="url(#tileA)"/>
    <rect x="460" y="484" width="104" height="104" rx="22" fill="url(#tileA)"/>
    <rect x="460" y="602" width="104" height="104" rx="22" fill="url(#tileA)"/>
    <rect x="460" y="720" width="104" height="104" rx="22" fill="url(#tileA)"/>
  </g>
</svg>
